<?xml version="1.0" encoding="UTF-8" standalone="no"?>
<svg width="136px" height="52px" viewBox="0 0 136 52" version="1.1" xmlns="http://www.w3.org/2000/svg" xmlns:xlink="http://www.w3.org/1999/xlink">
    <!-- Generator: Sketch 50 (54983) - http://www.bohemiancoding.com/sketch -->
    <title>Fill 57</title>
    <desc>Created with Sketch.</desc>
    <defs></defs>
    <g id="Symbols" stroke="none" stroke-width="1" fill="none" fill-rule="evenodd">
        <g id="footer" transform="translate(-116.000000, -229.000000)" fill="#737680">
            <path d="M222.087119,266.41309 L222.08775,266.419254 L222.073852,266.421167 L222.073221,266.415003 L222.087119,266.41309 Z M191.386488,249.419515 C191.405861,249.414839 191.426287,249.409737 191.446502,249.404849 C191.426287,249.409737 191.40565,249.414839 191.386488,249.419515 Z M191.807641,249.407824 C191.811011,249.406762 191.815012,249.405911 191.818591,249.404849 C191.815012,249.405911 191.811011,249.406762 191.807641,249.407824 Z M190.965334,249.424828 C190.992078,249.418239 191.020505,249.411438 191.048302,249.404849 C191.020505,249.411438 190.992078,249.418239 190.965334,249.424828 Z M194.526675,230.68045 C192.04614,232.447067 188.894177,236.129292 188.4286,240.896532 C188.253054,242.694085 187.94585,244.476966 187.892872,246.297038 C187.885801,246.542474 187.879178,246.963286 187.879178,246.963286 C187.879178,246.963286 187.732367,246.990241 187.560637,247.019129 C187.451314,247.037668 187.332226,247.056889 187.234127,247.070423 C184.476805,247.452112 181.718697,247.831184 178.989323,248.395983 C176.251867,248.962374 173.575359,249.71779 171.083263,251.030157 C167.794366,252.762199 165.174764,255.20769 163.50551,258.593867 C161.647129,262.363781 161.433758,266.281661 162.730483,270.267895 C163.765685,273.450717 165.552344,276.108775 168.385317,277.926686 C173.401048,281.145562 180.039341,282.048376 185.049348,278.305076 C187.288115,276.632403 188.805058,274.388902 189.88381,271.827063 C190.857279,269.515322 191.436669,267.070059 191.733323,264.576573 C192.170728,260.901627 191.993836,257.121933 191.556656,253.510222 C191.516922,253.182216 191.521636,252.826117 191.521636,252.826117 C191.521636,252.826117 191.718059,252.76618 191.951296,252.697485 C192.011907,252.679743 192.074762,252.661432 192.137505,252.643348 C194.315325,252.016906 203.410694,251.521257 207.751293,243.797979 C208.654163,242.191384 209.392824,240.430453 209.392824,238.441601 C209.392824,233.219884 202.75599,229.158473 199.452164,229.007435 C196.040138,228.886992 195.11179,230.263732 194.526675,230.68045 Z M191.919803,243.159142 C191.980975,242.495282 191.989954,241.76375 192.213539,241.085104 C192.736696,239.497162 193.592312,238.072426 195.542731,236.5401 C196.985482,235.406521 199.78018,235.564155 200.818077,237.108765 C202.957847,240.293294 200.966011,243.056896 199.682867,243.93503 C197.932687,245.132754 197.503476,245.315296 194.888588,245.933435 C193.127969,246.349699 191.824959,246.535311 191.824959,246.535311 C191.824959,246.535311 191.747625,245.024594 191.919803,243.159142 M178.260834,272.071078 C175.87649,271.485921 174.420607,269.834743 173.869278,267.442252 C173.299877,264.971058 174.20993,262.855393 175.719577,260.991193 C177.688965,258.559464 180.296893,256.982554 183.051971,255.638455 C184.507293,254.928419 186.023337,254.366805 187.555994,253.853527 C187.681143,253.81156 187.810669,253.769592 187.918421,253.735017 C188.0631,253.688614 188.168158,253.655859 188.168158,253.655859 C188.168158,253.655859 188.171638,254.01355 188.171638,254.318923 C188.171525,254.511132 188.171638,254.703569 188.171638,254.786935 C188.073426,257.647211 188.126068,256.065523 188.155812,255.215027 C188.033469,258.324605 187.737488,261.332734 186.896912,264.24146 C186.7721,264.673191 186.635614,265.102875 186.485547,265.53017 C185.914351,267.157464 185.157507,268.691725 184.024879,269.996472 C182.805376,271.40119 181.343432,272.243043 179.631975,272.243043 C179.191428,272.243043 178.734605,272.187313 178.260834,272.071078 Z M158.178777,281 L154.115141,281 L154.115141,262.793271 C154.115141,260.504433 153.446577,258.527637 152.160573,256.915041 C150.87457,255.302445 149.12574,254.470068 147.016897,254.470068 C144.856479,254.470068 143.004723,255.198355 141.410057,256.602885 C139.866965,258.007415 139.095363,259.776032 139.095363,261.908963 L139.095363,281 L134.980377,281 L134.980377,261.908963 C134.980377,259.776032 134.208887,258.007415 132.614333,256.602885 C131.071128,255.198355 129.219373,254.470068 127.059068,254.470068 C124.950112,254.470068 123.252632,255.302445 121.966741,256.915041 C120.68085,258.527637 120.063524,260.452274 120.063524,262.793271 L120.063524,281 L116,281 L116,263.261334 C116,259.567966 117.02869,256.550954 119.137646,254.314047 C121.092326,252.18123 123.664108,250.984766 126.85333,250.724655 C131.122591,250.360568 134.517438,252.233275 137.03787,256.238799 C139.558414,252.233275 142.953261,250.360568 147.222635,250.724655 C150.411631,250.984766 152.983638,252.18123 154.989669,254.314047 C157.098624,256.550954 158.178777,259.567966 158.178777,263.261334 L158.178777,281 Z M201.07302,279.474185 L201.07302,252.805657 L203.672391,252.805657 L203.672391,279.474185 L201.07302,279.474185 Z M206.548016,279.323305 L209.113154,279.323305 L209.113154,259.607273 L206.548016,259.607273 L206.548016,279.323305 Z M206.548016,257.40611 L206.548016,252.805657 L209.113154,252.805657 L209.113154,257.40611 L206.548016,257.40611 Z M229.295324,279.347931 L226.661719,279.347931 L226.661719,267.829602 C226.661719,266.169403 226.046082,264.751207 224.84904,263.540508 C223.651886,262.329922 222.283789,261.741826 220.676285,261.741826 C219.068781,261.741826 217.632218,262.329922 216.435176,263.540508 C215.238021,264.751207 214.656617,266.169403 214.656617,267.829602 L214.656617,279.347931 L212.023012,279.347931 L212.023012,268.106454 C212.023012,265.5468 212.843938,263.43676 214.485676,261.741826 C216.127301,260.046892 218.179501,259.182172 220.676285,259.182172 C223.138835,259.182172 225.191036,260.046892 226.832774,261.741826 C228.474511,263.43676 229.295324,265.5468 229.295324,268.106454 L229.295324,279.347931 Z M249.290621,267.960482 C248.914392,266.12718 248.059458,264.639856 246.725483,263.498398 C245.391508,262.356826 243.784003,261.768844 241.902969,261.734223 C240.021823,261.699603 238.379973,262.287699 236.977756,263.429157 C235.575427,264.570615 234.720381,266.092559 234.344151,267.960482 L249.290621,267.960482 Z M251.521183,273.002493 C250.802958,275.112534 249.57157,276.807353 247.827245,278.052674 C246.08292,279.29788 244.16754,279.920369 242.047098,279.95499 C239.379148,279.989611 237.019185,279.021256 234.966984,277.014964 C232.914896,274.974165 231.854675,272.5875 231.820442,269.785729 C231.751975,266.845589 232.778075,264.285935 234.898743,262.175895 C237.053418,260.031348 239.550202,259.028372 242.457448,259.201248 C245.056819,259.374238 247.314195,260.446454 249.229574,262.452747 C251.076487,264.424304 252,266.637979 252,269.093999 L252,270.512081 L234.48828,270.512081 C234.693455,272.483752 235.51438,274.144065 236.985064,275.423892 C238.45586,276.703605 240.165952,277.360829 242.149573,277.326208 C245.227874,277.291588 247.416782,275.838885 248.750758,273.002493 L251.521183,273.002493 Z" id="Fill-57"></path>
        </g>
    </g>
</svg>